<?xml version="1.0" encoding="UTF-8"?>
<svg id="Lennet" xmlns="http://www.w3.org/2000/svg" viewBox="0 0 178.1 277.2">
  <defs>
    <style>
      .cls-1 {
        fill: #141414;
      }

      .cls-2 {
        fill: #fff;
      }
    </style>
  </defs>
  <g id="körper_kantig" data-name="körper kantig">
    <g id="hand_haut" data-name="hand haut">
      <polygon class="cls-2" points="50.6 118.2 48.6 119.8 46.9 121.4 45.1 122.6 44 124.2 42.5 125.7 40.5 127.4 39.2 128 38.2 128.3 36.3 128.7 36.6 129.4 37.3 130.2 39.1 130.5 41.7 130.1 44.3 128.6 44.4 129.1 43.9 130.9 42.9 133.4 42.7 134.8 42.6 137.3 42.3 139.9 42.7 140.3 43.5 140.1 44.5 138.9 44.9 134.9 46.1 131.6 47 131 46.8 131.8 46.4 133 46.1 134.6 45.9 136.4 45.8 138.9 45.4 141.5 46 141.8 46.7 141.5 47.5 139.6 48 135.9 48.7 133.1 49 131.7 49.5 131.7 49.4 133.7 49.3 135.7 49.1 137.8 49 138.6 48.5 140.4 48.5 140.9 48.7 141.1 49.2 141.2 49.6 141 49.9 140.7 50.5 138.6 50.9 136.9 51.1 135 51.3 133.5 51.3 132.2 51.6 131.4 52.4 131.1 52.5 132.3 52.6 134.1 52.6 135.1 52.5 136.2 52.5 137.1 52.3 138 52.9 138.1 53.5 137.7 54 135.5 54.3 133.2 54.3 132.2 54.2 130 55.1 128.4 56 126.1 57.4 123.1 57.4 121.1 50.6 118.2"/>
      <polygon class="cls-2" points="155.9 124 156.5 125.4 156.4 126.6 156.3 127.5 157.2 133.1 157.3 134.2 158.1 135 159.3 136.3 160.1 137.9 160.4 138.8 160.8 139.9 162 141.7 162.8 142.9 163.7 142.9 164.3 142.3 164.1 140 163.9 138.8 163.1 137.3 161.6 134.9 161.2 133.3 161.5 132.9 163.3 133.9 165.2 135.4 168.3 138 171.3 141.1 173.3 143 173.6 143.6 175.5 144.7 176.4 144.6 177 144 176.9 143.2 177.5 143 177.9 142.4 177.2 141.1 176.6 140.7 175.7 139.6 174.7 137.6 174.8 136.8 174.7 135.6 174.2 133.2 172.8 131.4 173.3 129.7 170.9 125 168.5 123.1 166.4 121.3 163.7 119.4 155.9 124"/>
    </g>
    <g id="hand_kantig" data-name="hand kantig">
      <polygon class="cls-1" points="50.1 117.8 49.4 118.8 46.7 121.2 44.9 122.5 43.7 124.3 40.8 126.9 39.1 127.9 36 128.5 36.7 129.9 37.2 130.5 39 130.7 41.7 130.4 43.9 129.3 46.2 127.4 48.5 126.3 49.9 126.7 51.5 126.1 53.1 124.9 53.2 123.6 52.6 124.7 51.3 125.7 49.7 126.1 48.4 125.8 45.9 127 43.7 128.7 41.5 129.8 39.1 130.2 37.6 130.1 37.1 129.6 36.6 128.8 38.1 128.5 39.4 128.3 41 127.2 44.2 124.4 45.3 122.7 47.1 121.5 49.9 119.1 51.9 118.8 50.1 117.8"/>
      <polygon class="cls-1" points="44.2 128.6 44 129.8 42.6 133.7 42.4 134.8 42.4 137.6 42.1 139.9 42.7 140.6 43.9 140.3 44.6 139.1 44.8 137.2 45.2 134.9 46.1 132.5 46.3 131.7 46.7 131.3 46.2 133.1 45.8 135.2 45.7 137.5 45.5 139.4 45.1 141.3 45.2 141.8 46.1 142 46.9 141.6 47.6 139.7 47.9 138.4 48.2 136.2 48.5 134.8 49.1 132 49.4 131.9 49.1 133.9 48.9 138.3 48.3 140.6 48.4 141.3 49.3 141.5 50 141 50.7 138.7 51 137.3 51.5 133.7 51.6 132.2 51.9 131.4 52.3 131.3 52.3 132.1 52.4 134.4 52.3 136.8 52.1 138.2 53 138.3 53.7 137.8 54.3 135.4 54.5 132.6 54.5 130.1 55.5 128.3 56.7 125.4 57.7 123 57.8 122.1 57.6 121.1 57 121.1 57.2 123 56.5 124.4 54.9 128.3 54 129.9 54.1 132.6 53.9 135.3 53.3 137.6 52.9 137.9 52.5 137.9 52.7 136.6 52.9 134.4 52.7 132 52.6 130.8 51.4 131.2 51.1 132 51.1 133.7 50.6 137.3 50.3 138.6 49.8 140.6 49.2 141 48.7 140.9 48.7 140.5 49.3 138.2 49.6 133.5 49.8 131.5 48.9 131.5 48.7 131.9 48.5 132.9 47.7 136.1 47.5 138.3 47.2 139.7 46.5 141.4 46 141.6 45.6 141.4 45.9 139.6 46.1 137.7 46.2 135.2 46.5 133.1 47.2 131.1 47.1 130.6 46 131.4 45.7 132.1 44.8 134.7 44.2 137.2 44.1 138.9 43.6 139.8 42.9 140.1 42.6 139.8 42.8 137.6 42.8 134.9 43.1 133.5 44.4 130 44.7 128.2 44.2 128.6"/>
      <polygon class="cls-1" points="155.8 124.5 156.3 125.7 156 126.9 156 128.6 156.9 132.6 157 133.8 157.2 134.5 159.1 136.3 160 138.3 160.4 139.3 161.6 141.5 162.7 143.2 163.8 143.2 164.6 142.4 164.2 138.8 163.3 137.1 161.8 134.8 161.7 133.6 162.1 133.6 163.6 134.6 164.8 135.5 165.9 136.6 167.5 137.8 169.4 139.6 172.1 142.3 173.1 143.1 173.4 143.7 175.5 144.9 176.6 144.8 177.2 144 177.1 143.5 177.7 143.2 178.1 142.4 177.2 141 176.8 140.7 175.9 139.6 175 137.8 175.2 137.2 175.1 136.6 174.7 134.3 174.4 133.3 173.1 131.4 173.6 129.6 171.9 126.6 171.2 124.9 170.2 124.2 168.1 122.1 165.7 120.4 164.5 119.5 164.3 120 167.7 122.8 169.8 124.7 170.8 125.4 171.5 126.8 172.4 128.6 173.1 129.8 172.7 130.9 171.5 128 171.1 127.3 171.2 128.1 172 130.3 172.6 131.6 173.4 132.5 173.9 133.6 174.3 134.5 174.5 136.1 174.6 136.6 173 134.5 172 132.9 171.2 130.4 171.2 131.5 171.6 132.6 171.8 133.2 173.3 135.5 174.2 136.8 174.6 137.8 175.7 139.8 176.5 140.7 177.1 141.2 177.6 142 177.7 142.5 177.4 142.9 176.8 143 174.4 140.7 173.3 138.7 171.8 137.2 170.7 135.8 170.2 134.8 169.7 134.3 169.5 133.5 169.4 134.4 169.6 135 169.9 135.5 171.1 136.9 172.3 138.2 173 138.9 174.1 140.8 175.7 142.3 176.7 143.2 176.8 143.9 176.4 144.4 175.6 144.4 173.8 143.4 173.5 142.7 169.6 139 167.6 137 165.7 135.3 163.7 133.6 162.5 133.1 161.1 132 160.5 131.3 160.3 131.6 160.6 132.5 161.4 135 163.5 138.4 163.7 138.9 163.9 140.7 164.1 142.2 163.7 142.5 162.8 142.6 160.7 139.2 160.3 137.8 159.4 135.9 158.3 134.8 157.6 134.1 157.4 132.8 156.6 128.4 156.5 126.9 157.1 125.4 156.4 123.8 155.8 124.5"/>
    </g>
    <polygon class="cls-1" points="78.7 44.6 89 38.6 96.1 36.7 108.5 36.3 128.7 38 129.2 39.8 134.9 52.1 146.8 81.6 166.3 119.1 163.4 121.5 153.8 125.7 151.4 123.7 133.7 90.6 125.4 71.9 134.2 117.7 135.2 130.3 128.2 130.7 122.5 129.5 110.1 161.3 110.1 164.3 112.9 170.6 112.7 177.9 115.2 180.8 126.6 209.5 128.2 214.4 132.4 218 137 229.3 137.9 233.6 140.8 239.7 141 246.6 140.3 251 131.9 254.3 127.7 254.1 119.3 258 113.5 259 102.2 257.7 96.8 256.2 97.8 253.2 99.4 250.9 109.3 246.9 111.2 242.6 112.1 236.6 115.3 233.8 109.8 231 93.4 198.8 68.9 257.3 67.7 261.6 63.6 261.9 61.3 269.3 57.3 275.5 53.7 277.2 49 276.4 43 273.2 38.1 269 31 260.4 33.8 257.4 28.9 250.6 22.4 247.8 16.5 245.1 10.2 238.9 4.2 228.6 .7 216.9 0 211.4 1.5 207.4 5.2 205.1 8.8 205.2 16 207.9 27.9 217.1 33.5 220.2 36.3 219.5 40.5 215.9 81.5 154.4 81.6 143.7 80.6 132.4 74.6 133.1 72.6 131.8 72.3 116.9 74.8 114.4 78.3 86.2 74 97.6 61.1 121.9 57.6 121.7 50 118.5 48.9 116.9 60.8 92.2 78.7 44.6"/>
  </g>
  <g id="kopf_kantig" data-name="kopf kantig">
    <path id="haut" class="cls-2" d="M107.7,48.3c.2-4.6.6-12.3,1.9-13.4l1.3-5.7c1.4,0,1.4-1.5,1.4-1.5,1-2.9,2.6-5.6,2.6-5.6,1-4.5-2.9-2.1-2.9-2.1,1.6-10.1-12.3-9-12.3-9-6.1,1.1-10.3,1.6-13,7.7l.2,4.5s-4.3-1.6-2.5,2.6c0,0,2.1,2.4,3.6,5.1,0,0,.3,1.5,1.7,1.2,0,0,3.6,2.9,5.7,16.9l12.4-.7h-.1Z"/>
    <polygon id="hut" class="cls-1" points="87.3 21.9 85.2 21.9 82.2 21.3 80 20.4 79.1 19.4 79.5 18.2 83.7 16.5 85.7 16.2 85.5 11.1 86.1 6.2 87.6 2.2 86.9 1.2 93.6 .2 101.6 .2 108.1 0 108.8 1.7 109.4 5.6 110.8 11.5 110.8 13.8 112.5 13.7 116.2 14.8 119.1 15.6 119.5 17.1 118.2 18.2 115 19.5 111.8 19.9 104.5 20.8 98.2 21.8 92.5 22.1 87.3 21.9"/>
    <g id="face">
      <polygon class="cls-2" points="87.7 38.3 95.4 38.9 100.2 35 94.1 32.8 92.3 34 89.9 35.7 87.3 38.1 87.7 38.3"/>
      <polygon class="cls-2" points="102.3 34.8 101.7 31.8 103.2 30.5 103.9 30 105.3 30.1 111.2 32.6 115.7 34.8 115.7 35.3 114.5 36 112.1 36.8 110.2 37.1 108 37.6 106.8 37.1 102.3 34.8"/>
      <path class="cls-1" d="M116.1,34.6l-4.6-2.2-.7-.4.5-2.5h.7l1.2-.5-.5-1.3,1.2-2.6,1.6-2.9.2-2.4-.8-.6-1.9.4-.7.2.2-1.1-.7-.2-.2,2.3,1.7-.8,1.2-.2.7.3-.2,1.4-.6,1.9-2.1,4.4.2,1-.7.4h-1c0-.1-.8,2.8-.8,2.8l-1.7-.9-3.3-1.1h-1.4l-1,.6.8-1.1.5-.4h.9l1.6.6-2-1.4-1.4-.2.4.7-.5.6-.6.5-.7,1.3h-1.5c0,.1-1.6-.6-1.6-.6l-.5-.5-1.2-.6-.2-.5v-.3c.1,0,.5-.2.5-.2v-.2l-.6.2-.7,1-1.4,2.1-1.3,1.2-2,1.2-.8-1.6-.8-.8-.7.5h-.7c0-.1-.2-1.2-.2-1.2l-1.4-2.3-1.9-2.3-.6-.3-.4-2.1.3-.8h3l-.3-1.9h-.4l.2,1.6h-2.7l-.6.8.4,2.5.9.5,2,2.9,1,1.8.2.8.8.6,1.1-.2,1,2.1-.3.5-2.9,2.3-1.1.8,1,.5,8,.5.7-.8,2.9-.9,1.1.3h1.7l1.4-.5,3.7.2.7.6,4.8-1.3h.5l3.1-1.3-.2-.8h0l.5-.1ZM99.9,34.8l-1.9,1-1.8,1.7-.7,1.2-3.6-.2-4-.2-.4-.2,1.4-1.2,2.7-2.3,2.1-1.3.9-.7,1.4-.9,1.4-.7,1.2.3.9.9.3,1.8.2.6v.3l-.1-.1ZM114.3,35.9l-2.3.7-3.4.7h-.8l-.6-.4-1.4-1.5-3-1-.5-.7v-1.9l.7-.8.8-.7h.8l1.2.3,2.1.8,2.4,1.1,5.2,2.7-1.3.8.1-.1Z"/>
      <polygon class="cls-1" points="87.8 26.2 87.4 26.9 87.5 27.6 88 27.9 88.4 29.4 87.6 28.4 86.6 27.3 86 25.8 84.7 25.4 84.6 24.1 84.8 23.6 86.3 23.9 87.1 23.7 87.8 26.2"/>
      <polygon class="cls-1" points="111.9 21.3 113.7 20.7 114.6 20.6 114.5 21.4 112.4 25.7 111.7 25.9 111.4 26.6 110.8 26.5 110.8 25.9 111.9 24.9 111.9 23.9 111.2 23.5 111.5 22.5 111.4 21.5 111.9 21.3"/>
      <polygon class="cls-1" points="90.9 23.3 90.4 23 90.4 22.4 92 22 93.9 21.8 95.9 21 97.1 21 98.6 21.9 98.7 22.7 97.6 24.2 95.2 25.5 92.6 26 95.2 24.4 94.6 23.7 94 23.2 91.4 23.5 90.9 23.3"/>
      <polygon class="cls-1" points="100.2 22.6 100 21.9 101.2 21.1 102.5 20.6 103.3 20.6 105.1 21.3 106.6 21.8 107.7 21.7 108.2 22.2 108.2 22.9 107.7 23 106.2 22.7 104.7 23 103.6 23.6 103.6 24.3 104.9 25 105.2 25.4 103.8 25.3 101.5 24 100.2 22.6"/>
      <polygon class="cls-1" points="99.3 40.8 100.4 41.5 102.2 41.6 103.3 40.5 103.8 39.1 102 39.9 100 39.7 98.8 39.3 99.3 40.8"/>
      <polygon class="cls-1" points="96 25.6 97.8 24.5 97.8 24.7 96.6 25.6 96 25.6"/>
      <polygon class="cls-1" points="101.6 24.4 103.7 25.5 103.2 25.6 101.8 24.8 101.6 24.4"/>
      <polygon class="cls-1" points="97.8 24.5 98.4 23.5 98.2 24.1 97.8 24.7 97.8 24.5"/>
      <polygon class="cls-1" points="89.2 38.3 95.8 32.8 93.8 34.9 89.5 38.4 89.2 38.3"/>
      <polygon class="cls-1" points="91.5 38.6 98.2 33 96.2 35.1 91.9 38.6 91.5 38.6"/>
      <polygon class="cls-1" points="114.2 36.2 106.6 31.9 109 33.6 113.8 36.3 114.2 36.2"/>
      <polygon class="cls-1" points="111.8 36.8 104.4 32.6 106.7 34.3 111.4 36.9 111.8 36.8"/>
      <polygon class="cls-1" points="92.4 38.7 93.7 42.4 94.9 49.7 108.3 49.2 108.7 41.1 109.2 37.4 108.6 37.4 108.1 41.1 107.8 44.7 107.6 48.4 95.5 49 94.4 42.6 93.2 38.8 92.4 38.7"/>
      <g id="kinndbart">
        <polygon class="cls-1" points="97.2 48.9 97 46.6 96.5 44 96.9 48.9 97.2 48.9"/>
        <polygon class="cls-1" points="99 48.8 98.8 46.5 98.4 44.7 98.7 48.8 99 48.8"/>
        <polygon class="cls-1" points="100.9 48.8 100.8 47.1 100.4 45.3 100.6 48.8 100.9 48.8"/>
        <polygon class="cls-1" points="102.7 48.6 102.5 46.3 102.1 44.6 102.4 48.7 102.7 48.6"/>
        <polygon class="cls-1" points="104.5 48.5 104.4 46.5 104.1 45 104.2 48.6 104.5 48.5"/>
        <polygon class="cls-1" points="106.2 48.5 106.2 46.3 106 43.9 106 48.5 106.2 48.5"/>
      </g>
    </g>
  </g>
  <g id="abzeichen">
    <polygon class="cls-2" points="90.7 78.1 91.1 80.6 89.7 81.5 89.2 82.6 89.2 83.9 90.2 84.9 91.4 85.3 92.8 84.9 93.8 83.6 93.8 82.3 93 81.3 92.1 80.6 92.1 78.5 90.7 78.1"/>
    <polyline class="cls-1" points="91.1 81 90 81.7 89.6 82.6 89.6 83.7 90.4 84.6 91.5 84.9 92.6 84.6 93.4 83.5 93.4 82.4 92.7 81.6 91.9 81"/>
    <polygon class="cls-2" points="91.2 87.6 92.3 87.3 92.2 89.5 93.5 90.3 94.1 91.6 94 93.1 93.2 94 91.8 94.3 90.5 94 89.5 92.8 89.5 91.5 90.1 90.4 91.3 89.6 91.2 87.6"/>
    <polyline class="cls-1" points="91.6 90.1 90.7 90.7 90.3 91.4 90.4 92.3 91 93 91.8 93.3 92.8 93 93.4 92.4 93.4 91.4 93 90.6 92.2 90.1"/>
    <polyline class="cls-2" points="91.3 81.8 90.6 82.2 90.4 82.7 90.4 83.3 90.9 83.8 91.5 84 92.1 83.8 92.5 83.4 92.5 82.7 92.3 82.1 91.7 81.8"/>
  </g>
</svg>